<svg xmlns="http://www.w3.org/2000/svg" version="1.0" viewBox="0 0 860 900"><path d="M399.5 41.1c-82.3 6.9-156.1 36.2-220.7 87.7-17.1 13.6-46.4 42.9-60.2 60.2-70 87.4-100.2 197.3-84.5 307.5 10.2 71.7 38.5 136.7 84.7 194.7 13.6 17.1 42.9 46.4 60 60 75.8 60.4 167.4 91.4 261.7 88.5 49.8-1.6 92.6-10.3 137-27.9 36.9-14.7 71.4-34.9 103.7-60.6 17.1-13.6 46.4-42.9 60-60 46.7-58.5 75.7-126.1 85.2-198.2 13-98-10.1-195.6-65.4-277.4-14-20.7-29-38.7-48.4-58.2-42.4-42.3-88.7-72.1-144.9-93-29.1-10.8-63.3-18.7-97.2-22.4-13.6-1.5-57.5-2.1-71-.9zM461 81.5c84 7.4 159.8 42.2 219.9 100.9C741.1 241.2 777 313.9 787.7 399c2.4 19.2 2.4 62.3 0 82-10.5 84.5-46.6 157.8-106.8 216.6-58.6 57.2-130.2 90.8-214.4 100.6-16.2 1.9-60.7 1.6-77.5-.5-81.3-10.2-151.7-43.7-208.9-99.2-63.5-61.6-100.9-140-108.6-227.5-10.2-114.7 35.7-227.4 123.4-303.3 65.1-56.2 146.9-87 233.1-87.6 9.1 0 23.9.6 33 1.4z"/><path d="M183.7 261c-4.6 1.4-9.4 5.7-11.7 10.5-4.6 9.5-.7 21.1 8.9 26.2 4.3 2.2 5.2 2.3 28.6 2.3h24.1l9.1 34.2c29 109.2 76.6 287 77.9 291.1.9 2.7 2.9 6.4 4.6 8.2 6 7-1.8 6.6 130.8 6.3 114.9-.3 119.6-.4 123.3-2.2 4.8-2.4 8.2-6.8 9.8-12.9 2.4-8.6-2-18.4-9.8-22.3-3.6-1.8-8.2-1.9-114-2.2l-110.2-.2-1.5-5.3c-3.1-10.9-13.6-51.4-13.6-52.5 0-.9 32.5-1.2 136.9-1.2 102 0 137.7-.3 140.2-1.2 4.9-1.7 8.3-4.5 10.8-8.8 1.3-2.3 9.9-35.7 22.2-86.2 15.7-64.4 19.9-83.3 19.6-87-.5-5.8-4.2-11.7-9.4-14.9l-3.8-2.4-185.4-.5-185.5-.5-2.7-10c-1.5-5.5-5.4-20.4-8.8-33-3.4-12.7-7-24.5-7.9-26.4-1-1.8-3.7-4.8-6.1-6.5l-4.3-3.1-34.6-.2c-19.1-.1-36 .2-37.5.7zm189.8 419.9c-8.4 2.3-14.7 7.3-19.3 15-2.4 4.1-2.7 5.6-2.7 13.6 0 8.1.3 9.5 3 14.3 3.5 6.4 7.1 9.7 14.4 13 4.6 2.1 6.4 2.4 13 2 8.4-.5 12.1-2 18.2-7.5 11.9-10.7 12.9-28.8 2.4-41.1-6.5-7.5-19.9-11.8-29-9.3zm136.8.9c-12.2 4.4-20.3 15.4-20.3 27.8 0 11.5 8.1 23.4 18.6 27.3 8.4 3.2 16.6 2.8 24.2-1 9.9-4.9 15.2-12.8 16-24 .6-8.6-1.6-15.2-7-21.4-7.9-9-20.7-12.6-31.5-8.7z"/></svg>