<svg xmlns="http://www.w3.org/2000/svg" version="1.0" viewBox="0 0 225 225"><path d="M100.6 2.1C55 6.9 16.5 40.1 5.1 84.5c-12.3 47.4 7.6 96.7 49.3 122.6 46.1 28.4 107.3 18.9 142.3-22.2 44.4-52.2 32.1-130.9-26.1-167C156.1 9 140.8 3.9 123 2c-10.6-1.1-11.3-1.1-22.4.1zm30.5 3.4c45.2 7.9 80.5 43.2 88.4 88.4 11.6 66.3-39.6 127.1-107 127.1-53 0-97.9-37.7-107-89.9-8-45.7 14.3-91.8 55.5-114.4 8.3-4.5 22.3-9.4 32-11.2 10.1-1.8 27.9-1.8 38.1 0z"/><path d="M78.4 60.9c-7.7 4.7-16.7 19.3-19.8 32.2-2 8.2-2.1 23-.2 26.7 1.7 3.4 5.5 5.5 8.7 5 2.4-.3 2.4-.4 2.1-10.8-.2-7 .2-13.2 1.3-18.5 1.8-8.6 5.7-18.5 7.4-18.5.7 0 1.1 2.8 1.1 7.2 0 8.3 1.5 14.8 3.4 14.8.6 0 2.7-3.6 4.5-8 1.8-4.3 4.1-9 5.2-10.2 1.8-2 2-2.1 1.4-.3-.3 1.1-.9 6.2-1.2 11.5-.4 7.5-.2 10.3 1.1 13.3 1.3 3.3 1.9 3.8 4.3 3.5l2.8-.3.6-14.5c.4-8 1.1-15.9 1.7-17.6 1.2-3.9.1-5.4-4.3-5.4-3.4 0-6.8 2.9-10.1 8.7-1 1.8-2.2 3.3-2.7 3.3-.4 0-.5-1.5-.2-3.3.3-1.7.7-6.7.8-11 .2-6-.1-8-1.3-8.7-2.1-1.4-3.1-1.2-6.6.9zm80.3-.1c-2.3 2.5-2.2 6.5.2 8.6 2.6 2.4 6 1.7 8.4-1.7l2.1-2.7-2.1-2.8c-2.5-3.3-6.3-4-8.6-1.4zm7.1.4c2.1 2.1 1.5 6.7-1.2 7.9-3.4 1.6-6.6-.3-6.6-4.1 0-4.2 5-6.6 7.8-3.8z"/><path d="M160 65.2c0 2.4.3 2.9.9 1.9.7-1.1 1.3-1.2 2.3-.4 1 .9 1.3.5 1.5-1.8.2-2.5-.1-2.9-2.2-2.9-2.2 0-2.5.5-2.5 3.2zm4-1.2c0 .5-.7 1-1.5 1s-1.5-.5-1.5-1c0-.6.7-1 1.5-1s1.5.4 1.5 1zm-19.4 6.2c-1 5.2-6.6 12.4-6.6 8.5 0-.6-.5-2.9-1.1-5-.9-3.5-1.2-3.7-4.9-3.7-4.1 0-4.7.8-3 3.8.5.9 1.8 4 2.9 6.8l1.8 5.2-3.8 4.8c-4.2 5.3-4.8 8.3-2.3 10.8 2.5 2.6 4.4 2 4.4-1.4 0-2.8 2.4-9 3.5-9 .3 0 1.4 1.8 2.5 4 2 3.9 4.4 5.9 5.6 4.7.3-.3-.5-3.7-1.7-7.6l-2.3-7 6.2-7c3.4-3.8 6.2-7.4 6.2-8 0-1-4-3.1-5.9-3.1-.5 0-1.1 1.4-1.5 3.2zM120 71.4c0 1.1-1 1.3-4 .9-8.9-1.2-14.3 8.3-12.5 21.7 1.3 9.6 8.5 15.6 11.3 9.5.7-1.4 1.2-3.3 1.2-4.1 0-1.2.8-.9 3.1 1 2.8 2.4 5.9 3.4 5.9 2.1 0-.4-.7-2-1.6-3.7-1.8-3.5-1.4-10 1.2-20.2.8-3.2 1.3-6.5 1-7.2-.7-1.9-5.6-1.8-5.6 0zm-3 6.1c1.4 1.7 1 4.3-2.1 14.7-1.1 3.7-2.4 6.8-2.9 6.8-1.6 0-3.2-7.2-2.7-12.1 1.1-8.7 4.6-13.1 7.7-9.4zm-37.3 27.6c-.9.5-2.5 2.4-3.4 4.2-2.7 4.9-2.4 22.9.4 32.2 4 12.7 13 25 17.8 24.3 1.8-.3 2-1.2 2.3-9.8.3-12.3.8-13.6 3.3-8.5 2.6 5.5 6.3 8.5 10.3 8.5h3.2l-.3-15.8c-.2-8.6-.3-16-.3-16.5 0-.4-1.3-.7-2.9-.7-4.2 0-5.5 4.6-4.8 16.2.8 12.6-1.4 11.4-6.2-3.5-1.3-3.7-2.6-6.7-3-6.7-1.4 0-3.1 5.1-4.2 12.6-.6 4.1-1.5 7.4-1.9 7.4-.9 0-2.5-3.9-4-9.9-1.4-5.2-1.4-20.3-.2-27.8 1.2-6.8-1.1-9.1-6.1-6.2z"/><path d="M120.9 106.5c-16.5 3.1-29.9 8.7-30.7 12.9-.5 2.2 2.5 5.6 4.9 5.6 1.1 0 7.6-2.4 14.6-5.4 21.6-9.2 39.4-11.1 48.3-5.2 2.6 1.7 4 2.2 4 1.3 0-2.4-3.1-5.7-7.3-7.9-5.4-2.8-22.5-3.4-33.8-1.3z"/><path d="M141 115.8c0 1.1-.9 5.4-2 9.7-2.4 9.4-2.6 16.3-.4 19.3 2 2.9 5.2 2.8 6.3-.1.5-1.2 1.6-3.8 2.5-5.7l1.5-3.5-.6 4c-.3 2.2-1.4 6.8-2.5 10.2-1.7 5.7-2.6 6.8-5 6.4-.5 0-.8.3-.8.9 0 1.5 6.6 1.2 7.9-.4.7-.8 2.8-8.8 4.7-17.8 5.2-23.5 5-21.6 2.3-22.7-3-1.1-3.9-.6-3.9 2.4 0 2.9-5.6 18.5-7.5 21.1-1.4 1.8-1.4 1.8-1.4-.6-.1-1.4 1-6.8 2.4-12l2.5-9.5-2.1-1.8c-2.7-2.2-3.9-2.2-3.9.1z"/><path d="M132 117.4c0 1-1.1 1.2-4.5.9-3.9-.5-4.7-.2-7.4 2.4-5.2 5.3-6.8 18-3.2 26 3.1 6.6 7.4 6.8 10.1.3 1.2-2.8 3-4.1 3-2.1 0 .9 6 3.4 6.7 2.8.2-.2-.3-1.7-1.2-3.3-1.9-3.8-1.9-8.1.4-17.9 1-4.4 1.6-8.6 1.4-9.3-.6-1.7-5.3-1.6-5.3.2zm-2.5 6.6c.4 1.2-.7 6-2.6 11.7-2.9 8.9-3.3 9.5-4.6 7.7-1.9-2.5-1.2-13.7 1.1-18.2 1.9-3.6 5.1-4.3 6.1-1.2z"/></svg>