<svg xmlns="http://www.w3.org/2000/svg" version="1.0" viewBox="0 0 224 225"><path d="M90.1 2C64.4 7.6 42.5 20.7 26 40.2 15.4 52.8 8.9 65.3 3.5 83.5.2 94.5-1 116.7 1 130.1c4.9 33.6 27.3 65.3 58 81.7 20 10.8 43.7 15.1 67.5 12.4 38.8-4.5 74-31.6 89.3-68.7 6.7-16.2 7.7-22.2 7.6-43.5 0-18.3-.2-20-2.8-28.4-6.7-22.2-15.5-36.9-30.5-51.6-10.9-10.6-22.3-18.2-35.4-23.6C140.6 2.7 132.4 1 115.1.5c-13.3-.4-17-.2-25 1.5zm29.4 12c15.3 1.2 24.4 3.8 37.5 10.6 18.9 9.8 34.5 25.5 43.4 43.8 6.2 12.6 8.4 20.1 9.8 33.2 2 19.7-1.5 39.2-10.2 56.5l-3.2 6.1-3.1-2.9c-7.1-6.6-18-12.7-36-19.9l-10.8-4.4-5.7 4.7c-3.1 2.5-8.6 6-12.2 7.7-6 2.9-7.3 3.1-17 3.1s-11-.2-17-3.1c-3.6-1.7-9.1-5.2-12.2-7.7l-5.7-4.7-10.8 4.4c-18 7.2-28.9 13.3-36 19.9l-3.3 3.1-4-8.6c-2.2-4.7-5.2-13-6.7-18.4-2.4-8.9-2.7-11.5-2.7-25.4.1-17.1 1.4-23.9 7.5-38.5C34 42.4 66.2 18 99.4 14.1c3.9-.5 7.3-.9 7.6-.9.3-.1 5.9.3 12.5.8z"/><path d="M105.5 40.2C89 42.4 74 56.3 69.5 73.5c-6.8 26.3 11 61.3 34.6 67.9 11.9 3.4 22.8-.2 33.4-10.9 10.4-10.6 17.3-26 18.2-41 1.9-30.4-21.3-53.2-50.2-49.3z"/></svg>